# Blender 3.6.2
# www.blender.org
mtllib debug_arrow.mtl
o Cube
v -0.000000 -0.134350 -0.000008
v -0.134350 -0.000000 -0.000008
v -0.000000 -0.070711 -0.700008
v -0.070711 0.000000 -0.700008
v 0.134350 -0.000000 -0.000008
v -0.000000 0.134350 -0.000008
v 0.070711 0.000000 -0.700008
v -0.000000 0.070711 -0.700008
v 0.000000 -0.197990 -0.700008
v -0.197990 0.000000 -0.700008
v 0.197990 0.000000 -0.700007
v 0.000000 0.197990 -0.700008
v 0.000000 0.000000 -1.000008
vn -0.7057 -0.7057 -0.0642
vn -0.0000 -0.0000 1.0000
vn 0.7057 0.7057 -0.0642
vn 0.7057 -0.7057 -0.0642
vn -0.7057 0.7057 -0.0642
vn 0.6408 0.6408 -0.4229
vn 0.6408 -0.6408 -0.4229
vn -0.6408 0.6408 -0.4229
vn -0.6408 -0.6408 -0.4229
vt 0.375000 0.000000
vt 0.625000 0.000000
vt 0.625000 0.250000
vt 0.375000 0.250000
vt 0.375000 0.500000
vt 0.125000 0.500000
vt 0.625000 0.500000
vt 0.625000 0.750000
vt 0.375000 0.750000
vt 0.625000 1.000000
vt 0.375000 1.000000
vt 0.125000 0.750000
vt 0.875000 0.500000
vt 0.875000 0.750000
s 0
usemtl Material
f 1/1/1 2/2/1 4/3/1 3/4/1
f 7/5/2 3/6/2 9/6/2 11/5/2
f 7/5/3 8/7/3 6/8/3 5/9/3
f 5/9/2 6/8/2 2/10/2 1/11/2
f 3/6/4 7/5/4 5/9/4 1/12/4
f 8/7/5 4/13/5 2/14/5 6/8/5
f 12/7/6 11/5/6 13/7/6
f 4/13/2 8/7/2 12/7/2 10/13/2
f 3/4/2 4/3/2 10/3/2 9/4/2
f 8/7/2 7/5/2 11/5/2 12/7/2
f 11/5/7 9/6/7 13/5/7
f 10/13/8 12/7/8 13/13/8
f 9/4/9 10/3/9 13/4/9
